<svg width="24" height="25" viewBox="0 0 24 25" fill="none" xmlns="http://www.w3.org/2000/svg">
<path d="M11.4972 7.63312C10.3392 7.63312 9.2287 8.09312 8.4099 8.91192C7.5911 9.73072 7.1311 10.8412 7.1311 11.9992C7.1311 13.1572 7.5911 14.2677 8.4099 15.0865C9.2287 15.9053 10.3392 16.3653 11.4972 16.3653C12.6551 16.3653 13.7657 15.9053 14.5845 15.0865C15.4033 14.2677 15.8633 13.1572 15.8633 11.9992C15.8633 10.8412 15.4033 9.73072 14.5845 8.91192C13.7657 8.09312 12.6551 7.63312 11.4972 7.63312ZM11.4972 14.8347C10.7449 14.8347 10.0235 14.5359 9.49152 14.0039C8.95958 13.472 8.66074 12.7505 8.66074 11.9983C8.66074 11.246 8.95958 10.5245 9.49152 9.99259C10.0235 9.46065 10.7449 9.16181 11.4972 9.16181C12.2495 9.16181 12.9709 9.46065 13.5029 9.99259C14.0348 10.5245 14.3336 11.246 14.3336 11.9983C14.3336 12.7505 14.0348 13.472 13.5029 14.0039C12.9709 14.5359 12.2495 14.8347 11.4972 14.8347Z" fill="#692C90"/>
<path d="M16.0365 8.49142C16.5989 8.49142 17.0548 8.0355 17.0548 7.4731C17.0548 6.91069 16.5989 6.45477 16.0365 6.45477C15.4741 6.45477 15.0182 6.91069 15.0182 7.4731C15.0182 8.0355 15.4741 8.49142 16.0365 8.49142Z" fill="#692C90"/>
<path d="M19.5552 6.43776C19.3366 5.87329 19.0026 5.36067 18.5745 4.93273C18.1463 4.50478 17.6336 4.17094 17.069 3.95257C16.4084 3.70457 15.7105 3.57048 15.005 3.55599C14.0957 3.51634 13.8077 3.505 11.5019 3.505C9.19612 3.505 8.90057 3.505 7.99884 3.55599C7.29387 3.56974 6.59644 3.70386 5.93666 3.95257C5.37195 4.17068 4.85908 4.50444 4.43094 4.93241C4.0028 5.36039 3.66885 5.87314 3.45052 6.43776C3.20248 7.09835 3.06869 7.79634 3.05489 8.50183C3.01429 9.41017 3.00201 9.69816 3.00201 12.0049C3.00201 14.3107 3.00201 14.6043 3.05489 15.508C3.06905 16.2142 3.20219 16.9111 3.45052 17.573C3.66946 18.1374 4.00374 18.6499 4.43198 19.0779C4.86022 19.5058 5.37302 19.8397 5.9376 20.0582C6.59614 20.3161 7.29386 20.4598 8.00073 20.4831C8.91002 20.5227 9.198 20.535 11.5038 20.535C13.8096 20.535 14.1051 20.535 15.0069 20.4831C15.7123 20.4687 16.4102 20.335 17.0709 20.0874C17.6353 19.8686 18.1479 19.5344 18.576 19.1064C19.0041 18.6783 19.3382 18.1657 19.5571 17.6013C19.8054 16.9404 19.9385 16.2435 19.9527 15.5372C19.9933 14.6289 20.0056 14.3409 20.0056 12.0342C20.0056 9.72743 20.0056 9.43472 19.9527 8.5311C19.9417 7.81564 19.8072 7.10745 19.5552 6.43776ZM18.4051 15.4381C18.399 15.9823 18.2997 16.5213 18.1115 17.0319C17.9697 17.3991 17.7526 17.7326 17.4742 18.0108C17.1958 18.289 16.8622 18.5059 16.495 18.6475C15.99 18.8349 15.4567 18.9342 14.9181 18.9412C14.0211 18.9827 13.768 18.9931 11.4679 18.9931C9.1659 18.9931 8.93079 18.9931 8.01678 18.9412C7.47851 18.9346 6.9454 18.8352 6.44087 18.6475C6.07233 18.5068 5.73743 18.2903 5.45783 18.012C5.17824 17.7337 4.96018 17.3998 4.81775 17.0319C4.63216 16.5268 4.53289 15.9941 4.5241 15.456C4.4835 14.559 4.47406 14.306 4.47406 12.0058C4.47406 9.70477 4.47406 9.46966 4.5241 8.55471C4.5302 8.01086 4.62953 7.47208 4.81775 6.9618C5.10574 6.21681 5.69588 5.63045 6.44087 5.34529C6.94565 5.15847 7.4786 5.05916 8.01678 5.05164C8.91474 5.01104 9.16684 4.99971 11.4679 4.99971C13.769 4.99971 14.005 4.99971 14.9181 5.05164C15.4567 5.05812 15.9901 5.15746 16.495 5.34529C16.8622 5.48719 17.1957 5.70429 17.4741 5.98267C17.7525 6.26106 17.9696 6.59457 18.1115 6.9618C18.2971 7.46692 18.3963 7.99966 18.4051 8.53771C18.4457 9.43567 18.4561 9.68778 18.4561 11.9888C18.4561 14.289 18.4561 14.5364 18.4155 15.439H18.4051V15.4381Z" fill="#692C90"/>
</svg>
